<svg width="1547" height="512" viewBox="0 0 1547 512" fill="none" xmlns="http://www.w3.org/2000/svg">
<path d="M355.574 59.7136C423.505 59.7137 478.574 114.783 478.574 182.714V266.123C478.574 334.054 423.505 389.123 355.574 389.123H200.858C146.029 418.314 53.5868 466.381 72.4419 448.345C89.7311 431.808 98.5471 398.133 102.585 376.741C61.6388 356.774 33.4264 314.744 33.4263 266.123V182.714C33.4263 114.783 88.4953 59.7136 156.426 59.7136H355.574Z" fill="url(#paint0_linear_60_2)"/>
<path d="M339.712 356.125C329.538 354.531 321.537 350.15 315.711 342.983C310.145 335.856 308.025 328.067 309.35 319.614C310.637 311.397 315.021 304.747 322.499 299.664C330.239 294.623 339.196 292.899 349.371 294.494C359.545 296.088 367.415 300.449 372.981 307.575C378.546 314.702 380.685 322.374 379.397 330.591C378.073 339.044 373.671 345.811 366.192 350.893C358.714 355.976 349.887 357.72 339.712 356.125Z" fill="white"/>
<path d="M331.132 272.701L338.223 157.06L343.943 120.56L409.473 130.829L403.754 167.33L375.131 279.596L331.132 272.701Z" fill="white"/>
<path fill-rule="evenodd" clip-rule="evenodd" d="M310.72 333.654L252.419 344.349L225.997 304.051L113.998 324.595L105.016 365.234L105.101 365.253L102.692 376.73C84.5565 367.882 68.9201 354.705 57.1279 338.545L112.831 132.352L159.241 123.838L310.72 333.654ZM146.386 185.597C145.555 195.479 143.965 204.822 141.615 213.626L124.354 281.624L201.064 267.553L160.793 210.108C155.351 202.055 150.549 193.884 146.386 185.597Z" fill="white"/>
<mask id="path-5-outside-1_60_2" maskUnits="userSpaceOnUse" x="530.918" y="113.73" width="971" height="334" fill="black">
<rect fill="white" x="530.918" y="113.73" width="971" height="334"/>
<path d="M534.268 371.73L634.368 126.73H676.718L776.468 371.73H723.268L706.468 325.18H604.268L587.468 371.73H534.268ZM646.618 215.98L620.368 282.83H690.368L664.118 215.98C660.618 206.647 657.702 197.314 655.368 187.98C653.035 198.014 650.118 207.347 646.618 215.98ZM863.886 376.28C850.82 376.28 838.57 373.83 827.136 368.93C815.936 364.03 806.02 357.264 797.386 348.63C788.753 339.764 781.986 329.614 777.086 318.18C772.42 306.514 770.086 294.03 770.086 280.73C770.086 262.997 774.17 247.014 782.336 232.78C790.736 218.314 802.17 206.764 816.636 198.13C831.336 189.497 847.903 185.18 866.336 185.18C882.903 184.947 897.72 187.864 910.786 193.93C923.853 199.997 934.236 208.397 941.936 219.13L905.536 248.88C901.336 242.58 895.853 237.564 889.086 233.83C882.553 230.097 875.203 228.23 867.036 228.23C857.003 228.23 848.253 230.68 840.786 235.58C833.32 240.247 827.486 246.547 823.286 254.48C819.32 262.414 817.336 271.164 817.336 280.73C817.336 290.064 819.436 298.814 823.636 306.98C828.07 314.914 834.02 321.33 841.486 326.23C849.186 330.897 858.053 333.23 868.086 333.23C877.186 333.23 884.886 331.247 891.186 327.28C897.486 323.08 902.97 317.83 907.636 311.53L941.936 341.28C933.303 352.247 922.57 360.88 909.736 367.18C897.136 373.247 881.853 376.28 863.886 376.28ZM1036.16 376.28C1017.49 376.28 1001.04 371.964 986.81 363.33C972.577 354.697 961.493 343.264 953.56 329.03C945.86 314.564 942.01 298.58 942.01 281.08C942.01 263.58 946.093 247.597 954.26 233.13C962.427 218.43 973.51 206.764 987.51 198.13C1001.74 189.497 1017.96 185.18 1036.16 185.18C1054.36 185.18 1070.34 189.497 1084.11 198.13C1098.11 206.764 1108.96 218.43 1116.66 233.13C1124.59 247.597 1128.56 263.58 1128.56 281.08C1128.56 283.647 1128.44 286.33 1128.21 289.13C1127.98 291.93 1127.63 294.847 1127.16 297.88H991.01C993.577 308.614 998.71 317.364 1006.41 324.13C1014.34 330.897 1024.26 334.28 1036.16 334.28C1046.43 334.28 1055.29 331.947 1062.76 327.28C1070.46 322.614 1076.41 316.78 1080.61 309.78L1117.36 337.43C1110.13 348.864 1099.28 358.197 1084.81 365.43C1070.34 372.664 1054.13 376.28 1036.16 376.28ZM1035.46 225.78C1024.26 225.78 1014.69 229.164 1006.76 235.93C998.827 242.697 993.577 251.564 991.01 262.53H1080.96C1078.39 252.497 1073.03 243.864 1064.86 236.63C1056.93 229.397 1047.13 225.78 1035.46 225.78ZM1211.42 371.73C1193.45 371.73 1179.68 367.297 1170.12 358.43C1160.55 349.564 1155.77 335.214 1155.77 315.38V229.98H1130.22V189.73H1155.77V152.98L1203.02 148.08V189.73H1241.52V229.98H1203.02V312.93C1203.02 324.13 1207.92 329.73 1217.72 329.73H1237.32V371.73H1211.42ZM1281.67 444.88C1277 444.88 1271.75 444.647 1265.92 444.18C1260.09 443.714 1254.84 442.78 1250.17 441.38L1257.17 396.23C1263.7 397.864 1270.82 398.68 1278.52 398.68C1287.62 398.68 1295.09 395.997 1300.92 390.63C1306.75 385.497 1310.95 378.964 1313.52 371.03L1315.97 363.33L1243.87 189.73H1300.92L1336.27 293.68C1339.54 303.014 1342.1 312.697 1343.97 322.73C1345.84 312.697 1348.4 303.014 1351.67 293.68L1387.02 189.73H1443.02L1362.52 383.28C1354.82 401.714 1344.79 416.53 1332.42 427.73C1320.05 439.164 1303.14 444.88 1281.67 444.88ZM1451.79 371.73V116.23H1499.04V371.73H1451.79Z"/>
</mask>
<path d="M534.268 371.73L634.368 126.73H676.718L776.468 371.73H723.268L706.468 325.18H604.268L587.468 371.73H534.268ZM646.618 215.98L620.368 282.83H690.368L664.118 215.98C660.618 206.647 657.702 197.314 655.368 187.98C653.035 198.014 650.118 207.347 646.618 215.98ZM863.886 376.28C850.82 376.28 838.57 373.83 827.136 368.93C815.936 364.03 806.02 357.264 797.386 348.63C788.753 339.764 781.986 329.614 777.086 318.18C772.42 306.514 770.086 294.03 770.086 280.73C770.086 262.997 774.17 247.014 782.336 232.78C790.736 218.314 802.17 206.764 816.636 198.13C831.336 189.497 847.903 185.18 866.336 185.18C882.903 184.947 897.72 187.864 910.786 193.93C923.853 199.997 934.236 208.397 941.936 219.13L905.536 248.88C901.336 242.58 895.853 237.564 889.086 233.83C882.553 230.097 875.203 228.23 867.036 228.23C857.003 228.23 848.253 230.68 840.786 235.58C833.32 240.247 827.486 246.547 823.286 254.48C819.32 262.414 817.336 271.164 817.336 280.73C817.336 290.064 819.436 298.814 823.636 306.98C828.07 314.914 834.02 321.33 841.486 326.23C849.186 330.897 858.053 333.23 868.086 333.23C877.186 333.23 884.886 331.247 891.186 327.28C897.486 323.08 902.97 317.83 907.636 311.53L941.936 341.28C933.303 352.247 922.57 360.88 909.736 367.18C897.136 373.247 881.853 376.28 863.886 376.28ZM1036.16 376.28C1017.49 376.28 1001.04 371.964 986.81 363.33C972.577 354.697 961.493 343.264 953.56 329.03C945.86 314.564 942.01 298.58 942.01 281.08C942.01 263.58 946.093 247.597 954.26 233.13C962.427 218.43 973.51 206.764 987.51 198.13C1001.74 189.497 1017.96 185.18 1036.16 185.18C1054.36 185.18 1070.34 189.497 1084.11 198.13C1098.11 206.764 1108.96 218.43 1116.66 233.13C1124.59 247.597 1128.56 263.58 1128.56 281.08C1128.56 283.647 1128.44 286.33 1128.21 289.13C1127.98 291.93 1127.63 294.847 1127.16 297.88H991.01C993.577 308.614 998.71 317.364 1006.41 324.13C1014.34 330.897 1024.26 334.28 1036.16 334.28C1046.43 334.28 1055.29 331.947 1062.76 327.28C1070.46 322.614 1076.41 316.78 1080.61 309.78L1117.36 337.43C1110.13 348.864 1099.28 358.197 1084.81 365.43C1070.34 372.664 1054.13 376.28 1036.16 376.28ZM1035.46 225.78C1024.26 225.78 1014.69 229.164 1006.76 235.93C998.827 242.697 993.577 251.564 991.01 262.53H1080.96C1078.39 252.497 1073.03 243.864 1064.86 236.63C1056.93 229.397 1047.13 225.78 1035.46 225.78ZM1211.42 371.73C1193.45 371.73 1179.68 367.297 1170.12 358.43C1160.55 349.564 1155.77 335.214 1155.77 315.38V229.98H1130.22V189.73H1155.77V152.98L1203.02 148.08V189.73H1241.52V229.98H1203.02V312.93C1203.02 324.13 1207.92 329.73 1217.72 329.73H1237.32V371.73H1211.42ZM1281.67 444.88C1277 444.88 1271.75 444.647 1265.92 444.18C1260.09 443.714 1254.84 442.78 1250.17 441.38L1257.17 396.23C1263.7 397.864 1270.82 398.68 1278.52 398.68C1287.62 398.68 1295.09 395.997 1300.92 390.63C1306.75 385.497 1310.95 378.964 1313.52 371.03L1315.97 363.33L1243.87 189.73H1300.92L1336.27 293.68C1339.54 303.014 1342.1 312.697 1343.97 322.73C1345.84 312.697 1348.4 303.014 1351.67 293.68L1387.02 189.73H1443.02L1362.52 383.28C1354.82 401.714 1344.79 416.53 1332.42 427.73C1320.05 439.164 1303.14 444.88 1281.67 444.88ZM1451.79 371.73V116.23H1499.04V371.73H1451.79Z" fill="white"/>
<path d="M534.268 371.73L532.417 370.974L531.291 373.73H534.268V371.73ZM634.368 126.73V124.73H633.025L632.517 125.974L634.368 126.73ZM676.718 126.73L678.571 125.976L678.063 124.73H676.718V126.73ZM776.468 371.73V373.73H779.442L778.321 370.976L776.468 371.73ZM723.268 371.73L721.387 372.409L721.864 373.73H723.268V371.73ZM706.468 325.18L708.349 324.502L707.873 323.18H706.468V325.18ZM604.268 325.18V323.18H602.864L602.387 324.502L604.268 325.18ZM587.468 371.73V373.73H588.873L589.349 372.409L587.468 371.73ZM646.618 215.98L644.765 215.229L644.761 215.239L644.757 215.249L646.618 215.98ZM620.368 282.83L618.507 282.099L617.434 284.83H620.368V282.83ZM690.368 282.83V284.83H693.302L692.23 282.099L690.368 282.83ZM664.118 215.98L662.246 216.683L662.251 216.697L662.257 216.711L664.118 215.98ZM655.368 187.98L657.309 187.495L653.42 187.527L655.368 187.98ZM534.268 371.73L536.12 372.487L636.22 127.487L634.368 126.73L632.517 125.974L532.417 370.974L534.268 371.73ZM634.368 126.73V128.73H676.718V126.73V124.73H634.368V126.73ZM676.718 126.73L674.866 127.485L774.616 372.485L776.468 371.73L778.321 370.976L678.571 125.976L676.718 126.73ZM776.468 371.73V369.73H723.268V371.73V373.73H776.468V371.73ZM723.268 371.73L725.149 371.052L708.349 324.502L706.468 325.18L704.587 325.859L721.387 372.409L723.268 371.73ZM706.468 325.18V323.18H604.268V325.18V327.18H706.468V325.18ZM604.268 325.18L602.387 324.502L585.587 371.052L587.468 371.73L589.349 372.409L606.149 325.859L604.268 325.18ZM587.468 371.73V369.73H534.268V371.73V373.73H587.468V371.73ZM646.618 215.98L644.757 215.249L618.507 282.099L620.368 282.83L622.23 283.561L648.48 216.711L646.618 215.98ZM620.368 282.83V284.83H690.368V282.83V280.83H620.368V282.83ZM690.368 282.83L692.23 282.099L665.98 215.249L664.118 215.98L662.257 216.711L688.507 283.561L690.368 282.83ZM664.118 215.98L665.991 215.278C662.517 206.013 659.623 196.753 657.309 187.495L655.368 187.98L653.428 188.466C655.78 197.875 658.72 207.281 662.246 216.683L664.118 215.98ZM655.368 187.98L653.42 187.527C651.108 197.47 648.222 206.702 644.765 215.229L646.618 215.98L648.472 216.732C652.015 207.992 654.962 198.558 657.316 188.433L655.368 187.98ZM827.136 368.93L826.335 370.763L826.341 370.766L826.348 370.769L827.136 368.93ZM797.386 348.63L795.953 350.026L795.963 350.035L795.972 350.045L797.386 348.63ZM777.086 318.18L775.229 318.923L775.238 318.946L775.248 318.968L777.086 318.18ZM782.336 232.78L780.607 231.776L780.601 231.785L782.336 232.78ZM816.636 198.13L815.623 196.406L815.611 196.413L816.636 198.13ZM866.336 185.18V187.18H866.35L866.364 187.18L866.336 185.18ZM910.786 193.93L909.944 195.744V195.744L910.786 193.93ZM941.936 219.13L943.202 220.679L944.656 219.491L943.561 217.965L941.936 219.13ZM905.536 248.88L903.872 249.99L905.095 251.824L906.802 250.429L905.536 248.88ZM889.086 233.83L888.094 235.567L888.107 235.574L888.12 235.582L889.086 233.83ZM840.786 235.58L841.846 237.276L841.865 237.265L841.883 237.253L840.786 235.58ZM823.286 254.48L821.519 253.545L821.508 253.565L821.497 253.586L823.286 254.48ZM823.636 306.98L821.858 307.895L821.873 307.926L821.89 307.956L823.636 306.98ZM841.486 326.23L840.389 327.903L840.419 327.922L840.45 327.941L841.486 326.23ZM891.186 327.28L892.252 328.973L892.274 328.959L892.296 328.945L891.186 327.28ZM907.636 311.53L908.947 310.02L907.315 308.604L906.029 310.34L907.636 311.53ZM941.936 341.28L943.508 342.518L944.687 341.019L943.247 339.77L941.936 341.28ZM909.736 367.18L910.604 368.982L910.611 368.979L910.618 368.976L909.736 367.18ZM863.886 376.28V374.28C851.076 374.28 839.096 371.88 827.924 367.092L827.136 368.93L826.348 370.769C838.043 375.781 850.563 378.28 863.886 378.28V376.28ZM827.136 368.93L827.938 367.098C816.966 362.298 807.257 355.673 798.8 347.216L797.386 348.63L795.972 350.045C804.782 358.855 814.906 365.763 826.335 370.763L827.136 368.93ZM797.386 348.63L798.819 347.235C790.358 338.545 783.728 328.602 778.924 317.393L777.086 318.18L775.248 318.968C780.244 330.626 787.148 340.982 795.953 350.026L797.386 348.63ZM777.086 318.18L778.943 317.438C774.376 306.021 772.086 293.791 772.086 280.73H770.086H768.086C768.086 294.27 770.463 307.007 775.229 318.923L777.086 318.18ZM770.086 280.73H772.086C772.086 263.317 776.092 247.682 784.071 233.776L782.336 232.78L780.601 231.785C772.247 246.346 768.086 262.677 768.086 280.73H770.086ZM782.336 232.78L784.066 233.785C792.294 219.614 803.484 208.308 817.661 199.848L816.636 198.13L815.611 196.413C800.855 205.219 789.178 217.014 780.607 231.776L782.336 232.78ZM816.636 198.13L817.649 199.855C832.017 191.417 848.229 187.18 866.336 187.18V185.18V183.18C847.577 183.18 830.655 187.578 815.623 196.406L816.636 198.13ZM866.336 185.18L866.364 187.18C882.676 186.951 897.188 189.822 909.944 195.744L910.786 193.93L911.628 192.116C898.251 185.906 883.13 182.944 866.308 183.181L866.336 185.18ZM910.786 193.93L909.944 195.744C922.727 201.68 932.83 209.868 940.311 220.296L941.936 219.13L943.561 217.965C935.643 206.926 924.978 198.315 911.628 192.116L910.786 193.93ZM941.936 219.13L940.671 217.582L904.271 247.332L905.536 248.88L906.802 250.429L943.202 220.679L941.936 219.13ZM905.536 248.88L907.2 247.771C902.819 241.199 897.094 235.964 890.052 232.079L889.086 233.83L888.12 235.582C894.612 239.163 899.854 243.962 903.872 249.99L905.536 248.88ZM889.086 233.83L890.078 232.094C883.217 228.173 875.52 226.23 867.036 226.23V228.23V230.23C874.885 230.23 881.888 232.021 888.094 235.567L889.086 233.83ZM867.036 228.23V226.23C856.663 226.23 847.521 228.769 839.689 233.908L840.786 235.58L841.883 237.253C848.985 232.592 857.343 230.23 867.036 230.23V228.23ZM840.786 235.58L839.726 233.884C831.955 238.742 825.88 245.306 821.519 253.545L823.286 254.48L825.054 255.416C829.092 247.788 834.684 241.753 841.846 237.276L840.786 235.58ZM823.286 254.48L821.497 253.586C817.381 261.819 815.336 270.878 815.336 280.73H817.336H819.336C819.336 271.449 821.258 263.009 825.075 255.375L823.286 254.48ZM817.336 280.73H815.336C815.336 290.377 817.51 299.441 821.858 307.895L823.636 306.98L825.415 306.066C821.363 298.187 819.336 289.751 819.336 280.73H817.336ZM823.636 306.98L821.89 307.956C826.478 316.165 832.648 322.823 840.389 327.903L841.486 326.23L842.583 324.558C835.391 319.838 829.661 313.662 825.382 306.005L823.636 306.98ZM841.486 326.23L840.45 327.941C848.497 332.818 857.73 335.23 868.086 335.23V333.23V331.23C858.375 331.23 849.875 328.976 842.523 324.52L841.486 326.23ZM868.086 333.23V335.23C877.479 335.23 885.568 333.181 892.252 328.973L891.186 327.28L890.121 325.588C884.204 329.313 876.893 331.23 868.086 331.23V333.23ZM891.186 327.28L892.296 328.945C898.794 324.612 904.444 319.2 909.243 312.721L907.636 311.53L906.029 310.34C901.495 316.461 896.178 321.549 890.077 325.616L891.186 327.28ZM907.636 311.53L906.326 313.041L940.626 342.791L941.936 341.28L943.247 339.77L908.947 310.02L907.636 311.53ZM941.936 341.28L940.365 340.043C931.921 350.769 921.426 359.214 908.855 365.385L909.736 367.18L910.618 368.976C923.713 362.547 934.684 353.725 943.508 342.518L941.936 341.28ZM909.736 367.18L908.869 365.378C896.605 371.283 881.635 374.28 863.886 374.28V376.28V378.28C882.071 378.28 897.667 375.211 910.604 368.982L909.736 367.18ZM986.81 363.33L985.773 365.04V365.04L986.81 363.33ZM953.56 329.03L951.795 329.97L951.804 329.987L951.813 330.004L953.56 329.03ZM954.26 233.13L956.002 234.114L956.008 234.102L954.26 233.13ZM987.51 198.13L986.473 196.42L986.466 196.424L986.46 196.428L987.51 198.13ZM1084.11 198.13L1083.05 199.825L1083.05 199.829L1083.06 199.833L1084.11 198.13ZM1116.66 233.13L1114.89 234.058L1114.9 234.075L1114.91 234.092L1116.66 233.13ZM1128.21 289.13L1130.2 289.297V289.297L1128.21 289.13ZM1127.16 297.88V299.88H1128.88L1129.14 298.185L1127.16 297.88ZM991.01 297.88V295.88H988.475L989.065 298.346L991.01 297.88ZM1006.41 324.13L1005.09 325.633L1005.1 325.643L1005.11 325.652L1006.41 324.13ZM1062.76 327.28L1061.72 325.57L1061.71 325.577L1061.7 325.584L1062.76 327.28ZM1080.61 309.78L1081.81 308.182L1080.04 306.847L1078.9 308.751L1080.61 309.78ZM1117.36 337.43L1119.05 338.5L1120.04 336.941L1118.56 335.832L1117.36 337.43ZM1084.81 365.43L1085.7 367.219V367.219L1084.81 365.43ZM1006.76 235.93L1008.06 237.452V237.452L1006.76 235.93ZM991.01 262.53L989.063 262.075L988.488 264.53H991.01V262.53ZM1080.96 262.53V264.53H1083.54L1082.9 262.035L1080.96 262.53ZM1064.86 236.63L1063.51 238.108L1063.52 238.118L1063.53 238.128L1064.86 236.63ZM1036.16 376.28V374.28C1017.81 374.28 1001.73 370.042 987.847 361.62L986.81 363.33L985.773 365.04C1000.36 373.886 1017.17 378.28 1036.16 378.28V376.28ZM986.81 363.33L987.847 361.62C973.904 353.163 963.068 341.981 955.307 328.057L953.56 329.03L951.813 330.004C959.919 344.547 971.25 356.231 985.773 365.04L986.81 363.33ZM953.56 329.03L955.326 328.091C947.79 313.933 944.01 298.276 944.01 281.08H942.01H940.01C940.01 298.885 943.93 315.195 951.795 329.97L953.56 329.03ZM942.01 281.08H944.01C944.01 263.906 948.013 248.264 956.002 234.114L954.26 233.13L952.518 232.147C944.173 246.93 940.01 263.255 940.01 281.08H942.01ZM954.26 233.13L956.008 234.102C964.013 219.694 974.858 208.282 988.56 199.833L987.51 198.13L986.46 196.428C972.162 205.245 960.841 217.167 952.512 232.159L954.26 233.13ZM987.51 198.13L988.547 199.84C1002.44 191.414 1018.29 187.18 1036.16 187.18V185.18V183.18C1017.63 183.18 1001.05 187.58 986.473 196.42L987.51 198.13ZM1036.16 185.18V187.18C1054.03 187.18 1069.64 191.415 1083.05 199.825L1084.11 198.13L1085.17 196.436C1071.05 187.58 1054.69 183.18 1036.16 183.18V185.18ZM1084.11 198.13L1083.06 199.833C1096.75 208.276 1107.35 219.674 1114.89 234.058L1116.66 233.13L1118.43 232.202C1110.57 217.187 1099.47 205.252 1085.16 196.428L1084.11 198.13ZM1116.66 233.13L1114.91 234.092C1122.67 248.246 1126.56 263.896 1126.56 281.08H1128.56H1130.56C1130.56 263.265 1126.52 246.948 1118.41 232.169L1116.66 233.13ZM1128.56 281.08H1126.56C1126.56 283.587 1126.45 286.215 1126.22 288.964L1128.21 289.13L1130.2 289.297C1130.44 286.446 1130.56 283.707 1130.56 281.08H1128.56ZM1128.21 289.13L1126.22 288.964C1125.99 291.714 1125.64 294.585 1125.18 297.576L1127.16 297.88L1129.14 298.185C1129.61 295.11 1129.97 292.147 1130.2 289.297L1128.21 289.13ZM1127.16 297.88V295.88H991.01V297.88V299.88H1127.16V297.88ZM991.01 297.88L989.065 298.346C991.72 309.448 997.055 318.572 1005.09 325.633L1006.41 324.13L1007.73 322.628C1000.36 316.156 995.433 307.779 992.955 297.415L991.01 297.88ZM1006.41 324.13L1005.11 325.652C1013.46 332.771 1023.86 336.28 1036.16 336.28V334.28V332.28C1024.66 332.28 1015.23 329.023 1007.71 322.609L1006.41 324.13ZM1036.16 334.28V336.28C1046.74 336.28 1055.99 333.873 1063.82 328.976L1062.76 327.28L1061.7 325.584C1054.6 330.021 1046.12 332.28 1036.16 332.28V334.28ZM1062.76 327.28L1063.8 328.991C1071.75 324.173 1077.94 318.116 1082.33 310.809L1080.61 309.78L1078.9 308.751C1074.88 315.445 1069.17 321.054 1061.72 325.57L1062.76 327.28ZM1080.61 309.78L1079.41 311.379L1116.16 339.029L1117.36 337.43L1118.56 335.832L1081.81 308.182L1080.61 309.78ZM1117.36 337.43L1115.67 336.361C1108.67 347.431 1098.12 356.539 1083.92 363.642L1084.81 365.43L1085.7 367.219C1100.43 359.855 1111.59 350.296 1119.05 338.5L1117.36 337.43ZM1084.81 365.43L1083.92 363.642C1069.76 370.721 1053.85 374.28 1036.16 374.28V376.28V378.28C1054.4 378.28 1070.93 374.606 1085.7 367.219L1084.81 365.43ZM1035.46 225.78V223.78C1023.82 223.78 1013.79 227.31 1005.46 234.409L1006.76 235.93L1008.06 237.452C1015.6 231.018 1024.7 227.78 1035.46 227.78V225.78ZM1006.76 235.93L1005.46 234.409C997.178 241.475 991.718 250.728 989.063 262.075L991.01 262.53L992.957 262.986C995.435 252.4 1000.48 243.919 1008.06 237.452L1006.76 235.93ZM991.01 262.53V264.53H1080.96V262.53V260.53H991.01V262.53ZM1080.96 262.53L1082.9 262.035C1080.23 251.593 1074.64 242.617 1066.19 235.133L1064.86 236.63L1063.53 238.128C1071.42 245.111 1076.56 253.402 1079.02 263.026L1080.96 262.53ZM1064.86 236.63L1066.21 235.153C1057.87 227.553 1047.58 223.78 1035.46 223.78V225.78V227.78C1046.68 227.78 1055.98 231.241 1063.51 238.108L1064.86 236.63ZM1170.12 358.43L1168.76 359.897V359.897L1170.12 358.43ZM1155.77 229.98H1157.77V227.98H1155.77V229.98ZM1130.22 229.98H1128.22V231.98H1130.22V229.98ZM1130.22 189.73V187.73H1128.22V189.73H1130.22ZM1155.77 189.73V191.73H1157.77V189.73H1155.77ZM1155.77 152.98L1155.56 150.991L1153.77 151.177V152.98H1155.77ZM1203.02 148.08H1205.02V145.862L1202.81 146.091L1203.02 148.08ZM1203.02 189.73H1201.02V191.73H1203.02V189.73ZM1241.52 189.73H1243.52V187.73H1241.52V189.73ZM1241.52 229.98V231.98H1243.52V229.98H1241.52ZM1203.02 229.98V227.98H1201.02V229.98H1203.02ZM1237.32 329.73H1239.32V327.73H1237.32V329.73ZM1237.32 371.73V373.73H1239.32V371.73H1237.32ZM1211.42 371.73V369.73C1193.76 369.73 1180.55 365.376 1171.48 356.964L1170.12 358.43L1168.76 359.897C1178.81 369.218 1193.14 373.73 1211.42 373.73V371.73ZM1170.12 358.43L1171.48 356.964C1162.49 348.635 1157.77 334.945 1157.77 315.38H1155.77H1153.77C1153.77 335.482 1158.61 350.493 1168.76 359.897L1170.12 358.43ZM1155.77 315.38H1157.77V229.98H1155.77H1153.77V315.38H1155.77ZM1155.77 229.98V227.98H1130.22V229.98V231.98H1155.77V229.98ZM1130.22 229.98H1132.22V189.73H1130.22H1128.22V229.98H1130.22ZM1130.22 189.73V191.73H1155.77V189.73V187.73H1130.22V189.73ZM1155.77 189.73H1157.77V152.98H1155.77H1153.77V189.73H1155.77ZM1155.77 152.98L1155.97 154.97L1203.22 150.07L1203.02 148.08L1202.81 146.091L1155.56 150.991L1155.77 152.98ZM1203.02 148.08H1201.02V189.73H1203.02H1205.02V148.08H1203.02ZM1203.02 189.73V191.73H1241.52V189.73V187.73H1203.02V189.73ZM1241.52 189.73H1239.52V229.98H1241.52H1243.52V189.73H1241.52ZM1241.52 229.98V227.98H1203.02V229.98V231.98H1241.52V229.98ZM1203.02 229.98H1201.02V312.93H1203.02H1205.02V229.98H1203.02ZM1203.02 312.93H1201.02C1201.02 318.778 1202.29 323.537 1205.19 326.847C1208.13 330.209 1212.43 331.73 1217.72 331.73V329.73V327.73C1213.2 327.73 1210.16 326.452 1208.2 324.213C1206.19 321.924 1205.02 318.283 1205.02 312.93H1203.02ZM1217.72 329.73V331.73H1237.32V329.73V327.73H1217.72V329.73ZM1237.32 329.73H1235.32V371.73H1237.32H1239.32V329.73H1237.32ZM1237.32 371.73V369.73H1211.42V371.73V373.73H1237.32V371.73ZM1265.92 444.18L1265.76 446.174V446.174L1265.92 444.18ZM1250.17 441.38L1248.19 441.074L1247.93 442.796L1249.6 443.296L1250.17 441.38ZM1257.17 396.23L1257.66 394.29L1255.53 393.759L1255.19 395.924L1257.17 396.23ZM1300.92 390.63L1299.6 389.129L1299.58 389.144L1299.57 389.159L1300.92 390.63ZM1313.52 371.03L1315.42 371.646L1315.43 371.637L1313.52 371.03ZM1315.97 363.33L1317.88 363.937L1318.1 363.239L1317.82 362.563L1315.97 363.33ZM1243.87 189.73V187.73H1240.88L1242.02 190.498L1243.87 189.73ZM1300.92 189.73L1302.81 189.087L1302.35 187.73H1300.92V189.73ZM1336.27 293.68L1334.38 294.324L1334.38 294.333L1334.38 294.341L1336.27 293.68ZM1343.97 322.73L1342.01 323.096H1345.94L1343.97 322.73ZM1351.67 293.68L1353.56 294.341L1353.56 294.333L1353.56 294.324L1351.67 293.68ZM1387.02 189.73V187.73H1385.59L1385.13 189.087L1387.02 189.73ZM1443.02 189.73L1444.87 190.499L1446.02 187.73H1443.02V189.73ZM1362.52 383.28L1364.37 384.051L1364.37 384.049L1362.52 383.28ZM1332.42 427.73L1331.08 426.248L1331.07 426.255L1331.06 426.262L1332.42 427.73ZM1281.67 444.88V442.88C1277.07 442.88 1271.87 442.65 1266.08 442.187L1265.92 444.18L1265.76 446.174C1271.64 446.644 1276.94 446.88 1281.67 446.88V444.88ZM1265.92 444.18L1266.08 442.187C1260.36 441.729 1255.25 440.817 1250.75 439.465L1250.17 441.38L1249.6 443.296C1254.42 444.744 1259.81 445.698 1265.76 446.174L1265.92 444.18ZM1250.17 441.38L1252.15 441.687L1259.15 396.537L1257.17 396.23L1255.19 395.924L1248.19 441.074L1250.17 441.38ZM1257.17 396.23L1256.69 398.171C1263.4 399.849 1270.68 400.68 1278.52 400.68V398.68V396.68C1270.96 396.68 1264.01 395.879 1257.66 394.29L1257.17 396.23ZM1278.52 398.68V400.68C1288.04 400.68 1296.02 397.859 1302.28 392.102L1300.92 390.63L1299.57 389.159C1294.16 394.135 1287.2 396.68 1278.52 396.68V398.68ZM1300.92 390.63L1302.24 392.132C1308.37 386.744 1312.76 379.896 1315.42 371.646L1313.52 371.03L1311.62 370.415C1309.15 378.032 1305.14 384.251 1299.6 389.129L1300.92 390.63ZM1313.52 371.03L1315.43 371.637L1317.88 363.937L1315.97 363.33L1314.07 362.724L1311.62 370.424L1313.52 371.03ZM1315.97 363.33L1317.82 362.563L1245.72 188.963L1243.87 189.73L1242.02 190.498L1314.12 364.098L1315.97 363.33ZM1243.87 189.73V191.73H1300.92V189.73V187.73H1243.87V189.73ZM1300.92 189.73L1299.03 190.374L1334.38 294.324L1336.27 293.68L1338.16 293.037L1302.81 189.087L1300.92 189.73ZM1336.27 293.68L1334.38 294.341C1337.62 303.575 1340.16 313.16 1342.01 323.096L1343.97 322.73L1345.94 322.365C1344.05 312.234 1341.46 302.452 1338.16 293.02L1336.27 293.68ZM1343.97 322.73L1345.94 323.096C1347.79 313.16 1350.33 303.575 1353.56 294.341L1351.67 293.68L1349.78 293.02C1346.48 302.452 1343.89 312.234 1342.01 322.365L1343.97 322.73ZM1351.67 293.68L1353.56 294.324L1388.91 190.374L1387.02 189.73L1385.13 189.087L1349.78 293.037L1351.67 293.68ZM1387.02 189.73V191.73H1443.02V189.73V187.73H1387.02V189.73ZM1443.02 189.73L1441.17 188.962L1360.67 382.512L1362.52 383.28L1364.37 384.049L1444.87 190.499L1443.02 189.73ZM1362.52 383.28L1360.68 382.51C1353.07 400.724 1343.19 415.28 1331.08 426.248L1332.42 427.73L1333.76 429.213C1346.39 417.78 1356.58 402.703 1364.37 384.051L1362.52 383.28ZM1332.42 427.73L1331.06 426.262C1319.16 437.267 1302.78 442.88 1281.67 442.88V444.88V446.88C1303.5 446.88 1320.95 441.06 1333.78 429.199L1332.42 427.73ZM1451.79 371.73H1449.79V373.73H1451.79V371.73ZM1451.79 116.23V114.23H1449.79V116.23H1451.79ZM1499.04 116.23H1501.04V114.23H1499.04V116.23ZM1499.04 371.73V373.73H1501.04V371.73H1499.04ZM1451.79 371.73H1453.79V116.23H1451.79H1449.79V371.73H1451.79ZM1451.79 116.23V118.23H1499.04V116.23V114.23H1451.79V116.23ZM1499.04 116.23H1497.04V371.73H1499.04H1501.04V116.23H1499.04ZM1499.04 371.73V369.73H1451.79V371.73V373.73H1499.04V371.73Z" fill="white" mask="url(#path-5-outside-1_60_2)"/>
<defs>
<linearGradient id="paint0_linear_60_2" x1="54.5708" y1="119.219" x2="386.451" y2="300.868" gradientUnits="userSpaceOnUse">
<stop stop-color="#4E00CA"/>
<stop offset="1" stop-color="#FF0044"/>
</linearGradient>
</defs>
</svg>
